<?xml version="1.0" standalone="no"?>
<!DOCTYPE svg PUBLIC "-//W3C//DTD SVG 20010904//EN"
 "http://www.w3.org/TR/2001/REC-SVG-20010904/DTD/svg10.dtd">
<svg version="1.0" xmlns="http://www.w3.org/2000/svg"
 width="290.000000pt" height="138.000000pt" viewBox="0 0 290.000000 138.000000"
 preserveAspectRatio="xMidYMid meet">

<g transform="translate(0.000000,138.000000) scale(0.100000,-0.100000)"
fill="#000000" stroke="none">
<path d="M825 1370 c-4 -6 -3 -16 3 -22 6 -6 12 -6 17 2 4 6 3 16 -3 22 -6 6
-12 6 -17 -2z"/>
<path d="M1892 1288 c5 -15 28 -18 29 -3 0 6 -7 12 -17 13 -10 3 -15 -1 -12
-10z"/>
<path d="M656 1233 c-77 -93 -158 -165 -217 -193 -106 -50 -175 -49 -316 4
-53 20 -86 9 -108 -34 -25 -48 -12 -103 35 -150 43 -43 83 -55 159 -48 72 7
134 44 245 147 119 110 138 124 160 115 23 -9 20 -68 -5 -123 -29 -64 -74
-118 -238 -281 -164 -164 -235 -251 -289 -359 -34 -68 -37 -81 -37 -162 0 -79
2 -90 24 -113 19 -20 34 -26 65 -26 132 0 301 171 451 455 59 110 91 155 112
155 13 0 15 -9 11 -45 -8 -65 -62 -171 -171 -332 -98 -147 -116 -187 -97 -222
14 -27 29 -26 76 5 81 54 137 141 188 295 48 143 66 241 66 351 0 124 -24 169
-83 154 -43 -10 -94 -73 -185 -226 -47 -80 -102 -162 -122 -182 -62 -62 -112
-45 -95 32 13 58 91 158 244 310 168 168 211 227 237 329 37 148 -31 238 -110
144z"/>
<path d="M1216 1255 c-121 -31 -290 -143 -329 -219 -45 -86 -37 -147 54 -418
44 -132 49 -155 49 -235 0 -183 -67 -335 -136 -309 -24 9 -15 53 40 189 60
148 63 166 37 219 -22 47 -64 78 -104 78 -39 0 -52 -45 -52 -190 0 -178 29
-278 95 -334 22 -18 43 -26 68 -26 58 0 96 30 134 107 32 66 33 70 33 198 l0
130 -62 128 c-35 70 -63 134 -63 142 0 18 119 -53 173 -104 43 -41 44 -45 13
-181 -20 -90 -24 -258 -7 -319 18 -65 59 -101 114 -101 59 0 104 31 136 95 21
41 26 63 26 125 -1 105 -33 173 -110 231 -116 88 -113 130 23 351 58 94 84
176 85 273 1 154 -67 207 -217 170z m104 -129 c0 -27 -98 -474 -107 -485 -1
-2 -12 8 -24 22 -11 15 -47 47 -80 72 -33 26 -62 57 -65 71 -13 50 155 347
214 379 25 13 28 12 45 -7 9 -11 17 -34 17 -52z"/>
<path d="M2111 1228 c-84 -99 -149 -156 -215 -188 -59 -29 -78 -34 -144 -34
-59 0 -89 6 -131 24 -102 45 -156 21 -156 -70 0 -87 59 -142 160 -148 93 -6
162 29 289 147 117 109 137 124 161 115 14 -6 16 -16 13 -55 -8 -79 -58 -148
-238 -329 -270 -270 -350 -395 -350 -546 0 -96 27 -133 95 -134 132 0 300 173
460 475 52 98 81 135 103 135 24 0 8 -83 -31 -163 -20 -40 -69 -121 -109 -180
-123 -182 -147 -239 -113 -267 31 -26 110 31 175 124 75 109 139 333 147 506
4 98 2 120 -14 150 -14 27 -25 36 -50 38 -47 5 -94 -49 -199 -224 -49 -82
-105 -165 -125 -186 -64 -68 -118 -40 -90 45 21 64 91 151 236 294 195 191
250 282 250 409 0 109 -59 139 -124 62z"/>
<path d="M2676 1254 c-113 -28 -265 -123 -321 -202 -28 -41 -30 -50 -30 -130
1 -80 6 -103 64 -276 l63 -190 -5 -100 c-6 -129 -35 -224 -79 -261 -73 -62
-83 8 -20 156 55 128 64 166 52 211 -13 46 -71 98 -109 98 -45 0 -56 -40 -56
-195 1 -233 57 -355 165 -355 106 0 176 138 168 334 -4 101 -4 101 -66 227
-59 120 -70 149 -56 149 14 0 140 -84 172 -113 38 -36 39 -49 11 -153 -29
-109 -32 -289 -6 -356 24 -62 57 -88 112 -88 56 0 102 32 134 95 21 41 26 62
25 126 -1 103 -34 173 -109 230 -30 22 -61 51 -69 64 -30 45 -16 109 44 206
104 166 130 239 130 364 0 84 -18 133 -57 153 -34 18 -98 21 -157 6z m88 -76
c9 -12 16 -35 16 -51 0 -24 -91 -435 -105 -474 -2 -7 -22 6 -48 30 -25 23 -64
59 -87 79 -38 34 -42 41 -36 70 12 63 130 270 187 330 42 44 52 46 73 16z"/>
<path d="M112 1178 c-15 -15 -15 -61 0 -76 7 -7 24 -12 38 -12 14 0 31 5 38
12 15 15 15 61 0 76 -15 15 -61 15 -76 0z"/>
<path d="M1496 1164 c-10 -9 -15 -23 -12 -31 3 -8 6 -17 6 -19 0 -2 11 -4 25
-4 29 0 43 25 28 48 -14 23 -29 25 -47 6z"/>
</g>
</svg>